<?xml version="1.0" encoding="utf-8"?>
<!-- Generator: Adobe Illustrator 16.0.0, SVG Export Plug-In . SVG Version: 6.00 Build 0)  -->
<!DOCTYPE svg PUBLIC "-//W3C//DTD SVG 1.1//EN" "http://www.w3.org/Graphics/SVG/1.1/DTD/svg11.dtd">
<svg version="1.1" id="Layer_1" xmlns="http://www.w3.org/2000/svg" xmlns:xlink="http://www.w3.org/1999/xlink" x="0px" y="0px"
	 width="85.813px" height="36px" viewBox="0 0 85.813 36" enable-background="new 0 0 85.813 36" xml:space="preserve">
<g>
	<circle fill="#6D6D6D" cx="18" cy="18" r="18"/>
	<g>
		<path fill="#212623" d="M22.089,13.695c0.286,0,0.571,0.022,0.854,0.056c-0.768-3.765-4.586-6.561-8.944-6.561
			c-4.872,0-8.864,3.5-8.864,7.947c0,2.564,1.328,4.672,3.547,6.307l-0.886,2.811l3.099-1.638c1.109,0.231,2,0.468,3.104,0.468
			c0.278,0,0.556-0.014,0.829-0.036c-0.174-0.624-0.273-1.278-0.273-1.957C14.553,17.009,17.878,13.695,22.089,13.695z
			 M17.323,11.163c0.667,0,1.11,0.464,1.11,1.167c0,0.701-0.443,1.169-1.111,1.169c-0.664,0-1.331-0.47-1.331-1.169
			C15.992,11.626,16.658,11.163,17.323,11.163L17.323,11.163z M11.118,13.499c-0.664,0-1.335-0.47-1.335-1.169
			c0-0.703,0.671-1.167,1.335-1.167c0.665,0,1.106,0.464,1.106,1.167C12.225,13.029,11.783,13.498,11.118,13.499L11.118,13.499z"/>
		<path fill="#212623" d="M30.18,20.979c0-3.735-3.547-6.779-7.529-6.779c-4.217,0-7.539,3.044-7.539,6.779
			c0,3.742,3.322,6.779,7.539,6.779c0.882,0,1.772-0.234,2.66-0.47l2.43,1.403l-0.665-2.334
			C28.854,24.951,30.18,23.086,30.18,20.979z M20.205,19.809c-0.439,0-0.887-0.461-0.887-0.934c0-0.466,0.445-0.936,0.887-0.936
			c0.671,0,1.109,0.47,1.109,0.936C21.314,19.348,20.875,19.809,20.205,19.809z M25.081,19.809c-0.438,0-0.881-0.461-0.881-0.934
			c0-0.466,0.44-0.936,0.881-0.936c0.665,0,1.108,0.47,1.108,0.936C26.189,19.348,25.746,19.809,25.081,19.809z"/>
	</g>
</g>
<g>
	<circle fill="#FF8A26" cx="67.813" cy="18" r="18"/>
	<g>
		<path fill="#212623" d="M71.902,13.695c0.286,0,0.571,0.022,0.854,0.056c-0.768-3.765-4.586-6.561-8.944-6.561
			c-4.872,0-8.864,3.5-8.864,7.947c0,2.564,1.328,4.672,3.547,6.307l-0.886,2.811l3.099-1.638c1.109,0.231,2,0.468,3.104,0.468
			c0.278,0,0.556-0.014,0.829-0.036c-0.174-0.624-0.273-1.278-0.273-1.957C64.366,17.009,67.691,13.695,71.902,13.695z
			 M67.137,11.163c0.667,0,1.11,0.464,1.11,1.167c0,0.701-0.443,1.169-1.111,1.169c-0.664,0-1.331-0.47-1.331-1.169
			C65.806,11.626,66.472,11.163,67.137,11.163L67.137,11.163z M60.932,13.499c-0.664,0-1.335-0.47-1.335-1.169
			c0-0.703,0.671-1.167,1.335-1.167c0.665,0,1.106,0.464,1.106,1.167C62.038,13.029,61.597,13.498,60.932,13.499L60.932,13.499z"/>
		<path fill="#212623" d="M79.993,20.979c0-3.735-3.547-6.779-7.529-6.779c-4.217,0-7.539,3.044-7.539,6.779
			c0,3.742,3.322,6.779,7.539,6.779c0.882,0,1.772-0.234,2.66-0.47l2.43,1.403l-0.665-2.334
			C78.667,24.951,79.993,23.086,79.993,20.979z M70.019,19.809c-0.439,0-0.887-0.461-0.887-0.934c0-0.466,0.445-0.936,0.887-0.936
			c0.671,0,1.109,0.47,1.109,0.936C71.128,19.348,70.688,19.809,70.019,19.809z M74.895,19.809c-0.438,0-0.881-0.461-0.881-0.934
			c0-0.466,0.44-0.936,0.881-0.936c0.665,0,1.108,0.47,1.108,0.936C76.003,19.348,75.56,19.809,74.895,19.809z"/>
	</g>
</g>
</svg>
