<?xml version="1.0" encoding="utf-8"?>
<!-- Generator: Adobe Illustrator 16.0.0, SVG Export Plug-In . SVG Version: 6.00 Build 0)  -->
<!DOCTYPE svg PUBLIC "-//W3C//DTD SVG 1.1//EN" "http://www.w3.org/Graphics/SVG/1.1/DTD/svg11.dtd">
<svg version="1.1" id="Layer_1" xmlns="http://www.w3.org/2000/svg" xmlns:xlink="http://www.w3.org/1999/xlink" x="0px" y="0px"
	 width="150px" height="70px" viewBox="0 0 150 70" enable-background="new 0 0 150 70" xml:space="preserve">
<path fill="#FFFFFF" d="M108.557,48.389h-1.963l1.408-1.947h1.961L108.557,48.389z M112.369,44.133h3.48v1.586h-3.48v2.67h-1.852
	v-2.67h-3.85v-1.586h3.85v-2.887h1.852V44.133z M108.779,49.762l0.443-0.795h2l-0.408,0.795h4.85v2.561l-2.146,1.443l2.332,0.721
	v1.75l-4.109-1.316l-1.889,1.244h-2.998l2.889-1.895l-2.852-0.938l1.074-1.984h-1.111v-1.586H108.779z M108.889,41.391l1.186,2.02
	h-1.998l-1.186-2.02H108.889z M111.443,53.115l2.369-1.551v-0.217h-3.85l-0.629,1.119L111.443,53.115z M112.74,43.41l1.258-2.02h2
	l-1.334,2.02H112.74z M112.74,46.441h1.998l1.26,1.947h-2L112.74,46.441z M118.033,48.246h-1.814l1.186-7.072h1.814l-0.111,0.721
	h3.775v1.588h-0.518v2.85l-2,5.16l2.518,4.672h-2.072l-1.482-2.725l-1.221,2.725h-1.889l2-4.455l-0.963-1.805h1.852l1.406-3.68
	v-2.742h-1.666L118.033,48.246z"/>
<path fill="#FFFFFF" d="M129.01,45.359v-1.805l4.518-2.525l4.367,2.453v1.877l-4.367-2.453L129.01,45.359z M136.785,52.322
	l1.443,1.299l-0.852,2.543h-7.922V45.938h7.922l-0.223,5.771h-3.627l-0.666-1.588h2.553l0.111-2.598h-4.221v7.072h4.703
	L136.785,52.322z M141.301,42.58v9.85h-1.852v-9.85H141.301z M140.08,54.596h3.146v-13.35h1.85v14.918h-4.107L140.08,54.596z"/>
<path fill="#FFFFFF" d="M75.323,33.798h-2.111l-1.109-4.943h-6.367l-1.037,4.943h-2.11l2.628-13.421h7.404L75.323,33.798z
	 M71.805,26.872l-0.889-4.51h-4.072l-0.852,4.51H71.805z"/>
<path fill="#FFFFFF" d="M88.004,33.798h-2.553l-3.889-5.736h-3.479v5.736h-2.222V20.377h11.736v7.685h-3.48L88.004,33.798z
	 M85.451,26.15v-3.896h-7.367v3.896H85.451z"/>
<path fill="#FFFFFF" d="M101.627,33.798H89.633V20.377h11.883v1.876h-9.662v9.633h7.553v-3.824h-4.85v-1.984h7.07V33.798z"/>
<path fill="#FFFFFF" d="M105.848,33.798h-2.295V20.377h2.295V33.798z"/>
<path fill="#FFFFFF" d="M118.877,33.798h-10.885V32.13h8.959v-4.338h-7.514v-1.631h7.514v-4.115h-8.959v-1.668h10.885V33.798z"/>
<path fill="#FFFFFF" d="M132.076,33.798h-10.957V20.377h10.957v1.594h-9.031v4.041h9.031V33.798z M130.227,32.205v-4.598h-7.182
	v4.598H130.227z"/>
<path fill="#FFFFFF" d="M145.076,33.798h-10.957v-1.594h9.107v-4.413h-9.107v-7.415h10.957v1.594h-9.031v4.263h9.031V33.798z"/>
<g>
	<polygon fill="#FFFFFF" points="91.545,41.531 91.545,41.994 84.809,41.994 84.809,43.582 91.545,43.582 91.545,44.23 
		84.809,45.602 84.809,47.262 92.434,45.674 100.059,47.406 100.059,45.746 93.396,44.23 93.396,43.582 100.059,43.582 
		100.059,41.994 93.396,41.994 93.396,41.531 	"/>
	<polygon fill="#FFFFFF" points="84.512,49.426 97.617,49.426 97.617,54.584 95.766,54.584 96.506,56.154 99.467,56.154 
		99.467,49.426 100.355,49.426 100.355,47.838 84.512,47.838 	"/>
	<path fill="#FFFFFF" d="M85.215,55.434h9.848V50.76h-9.848V55.434z M86.992,52.348h6.293v1.516h-6.293V52.348z"/>
</g>
<g>
	<path fill="#FFFFFF" d="M77.365,41.525H62.558v6.783h14.807V41.525z M75.515,46.721H64.41v-1.084h11.105V46.721z M75.515,44.051
		H64.41v-1.01h11.105V44.051z"/>
	<polygon fill="#FFFFFF" points="69.925,49.498 69.925,56.154 71.776,56.154 71.776,51.014 75.848,51.014 75.848,54.043 
		73.109,54.043 73.923,55.541 77.699,55.541 77.699,49.498 	"/>
	<polygon fill="#FFFFFF" points="69.332,50.984 69.332,49.494 62.558,49.896 62.558,55.836 69.332,55.174 69.332,53.65 
		64.41,54.119 64.41,51.285 	"/>
</g>
<g>
	<circle fill="#FF8A26" cx="24.378" cy="35" r="5.923"/>
	<path fill="#FFFFFF" d="M24.372,10.627C10.912,10.627,0,21.54,0,35.001C0,48.46,10.912,59.372,24.372,59.372
		c12.169,0,22.254-8.918,24.077-20.576h-10.29c-3.066,3.176-8.201,6.98-13.787,6.98c-8.535,0-16.059-8.828-16.676-10.828
		c0.545-2.097,8.141-10.852,16.676-10.852c5.621,0,10.792,3.811,13.852,7.003h10.209h4.459h3.189
		c-0.881-7.333-4.244-13.9-9.228-18.838l-5.354,5.401C37.097,13.313,31.049,10.627,24.372,10.627z"/>
</g>
</svg>
